<svg viewBox="0 0 330 200" xmlns="http://www.w3.org/2000/svg"><g><g><g><g><g><line x1="51.5625" y1="176.921875" x2="46.5625" y2="176.921875" style="visibility: inherit;" fill="rgb(0, 0, 0)" stroke="rgb(204, 204, 204)" stroke-width="1px"></line><line x1="51.5625" y1="157.26388888888889" x2="46.5625" y2="157.26388888888889" style="visibility: inherit;" fill="rgb(0, 0, 0)" stroke="rgb(204, 204, 204)" stroke-width="1px"></line><line x1="51.5625" y1="137.60590277777777" x2="46.5625" y2="137.60590277777777" style="visibility: inherit;" fill="rgb(0, 0, 0)" stroke="rgb(204, 204, 204)" stroke-width="1px"></line><line x1="51.5625" y1="117.94791666666669" x2="46.5625" y2="117.94791666666669" style="visibility: inherit;" fill="rgb(0, 0, 0)" stroke="rgb(204, 204, 204)" stroke-width="1px"></line><line x1="51.5625" y1="98.28993055555556" x2="46.5625" y2="98.28993055555556" style="visibility: inherit;" fill="rgb(0, 0, 0)" stroke="rgb(204, 204, 204)" stroke-width="1px"></line><line x1="51.5625" y1="78.63194444444444" x2="46.5625" y2="78.63194444444444" style="visibility: inherit;" fill="rgb(0, 0, 0)" stroke="rgb(204, 204, 204)" stroke-width="1px"></line><line x1="51.5625" y1="58.97395833333334" x2="46.5625" y2="58.97395833333334" style="visibility: inherit;" fill="rgb(0, 0, 0)" stroke="rgb(204, 204, 204)" stroke-width="1px"></line><line x1="51.5625" y1="39.31597222222222" x2="46.5625" y2="39.31597222222222" style="visibility: inherit;" fill="rgb(0, 0, 0)" stroke="rgb(204, 204, 204)" stroke-width="1px"></line><line x1="51.5625" y1="19.65798611111112" x2="46.5625" y2="19.65798611111112" style="visibility: inherit;" fill="rgb(0, 0, 0)" stroke="rgb(204, 204, 204)" stroke-width="1px"></line><line x1="51.5625" y1="0" x2="46.5625" y2="0" style="visibility: inherit;" fill="rgb(0, 0, 0)" stroke="rgb(204, 204, 204)" stroke-width="1px"></line></g><g transform="translate(41.5625, 0)"><text x="0" y="176.921875" dx="0em" dy="0.3em" style="text-anchor: end; visibility: hidden; font-family: Roboto, sans-serif; font-size: 12px; font-weight: 200;" fill="rgb(33, 33, 33)" stroke="none" stroke-width="1px">96</text><text x="0" y="157.26388888888889" dx="0em" dy="0.3em" style="text-anchor: end; visibility: inherit; font-family: Roboto, sans-serif; font-size: 12px; font-weight: 200;" fill="rgb(33, 33, 33)" stroke="none" stroke-width="1px">96.5</text><text x="0" y="137.60590277777777" dx="0em" dy="0.3em" style="text-anchor: end; visibility: hidden; font-family: Roboto, sans-serif; font-size: 12px; font-weight: 200;" fill="rgb(33, 33, 33)" stroke="none" stroke-width="1px">97</text><text x="0" y="117.94791666666669" dx="0em" dy="0.3em" style="text-anchor: end; visibility: inherit; font-family: Roboto, sans-serif; font-size: 12px; font-weight: 200;" fill="rgb(33, 33, 33)" stroke="none" stroke-width="1px">97.5</text><text x="0" y="98.28993055555556" dx="0em" dy="0.3em" style="text-anchor: end; visibility: hidden; font-family: Roboto, sans-serif; font-size: 12px; font-weight: 200;" fill="rgb(33, 33, 33)" stroke="none" stroke-width="1px">98</text><text x="0" y="78.63194444444444" dx="0em" dy="0.3em" style="text-anchor: end; visibility: inherit; font-family: Roboto, sans-serif; font-size: 12px; font-weight: 200;" fill="rgb(33, 33, 33)" stroke="none" stroke-width="1px">98.5</text><text x="0" y="58.97395833333334" dx="0em" dy="0.3em" style="text-anchor: end; visibility: hidden; font-family: Roboto, sans-serif; font-size: 12px; font-weight: 200;" fill="rgb(33, 33, 33)" stroke="none" stroke-width="1px">99</text><text x="0" y="39.31597222222222" dx="0em" dy="0.3em" style="text-anchor: end; visibility: inherit; font-family: Roboto, sans-serif; font-size: 12px; font-weight: 200;" fill="rgb(33, 33, 33)" stroke="none" stroke-width="1px">99.5</text><text x="0" y="19.65798611111112" dx="0em" dy="0.3em" style="text-anchor: end; visibility: hidden; font-family: Roboto, sans-serif; font-size: 12px; font-weight: 200;" fill="rgb(33, 33, 33)" stroke="none" stroke-width="1px">100</text><text x="0" y="0" dx="0em" dy="0.3em" style="text-anchor: end; visibility: hidden; font-family: Roboto, sans-serif; font-size: 12px; font-weight: 200;" fill="rgb(33, 33, 33)" stroke="none" stroke-width="1px">101</text></g><line x1="51.5625" y1="0" x2="51.5625" y2="176.921875" fill="rgb(0, 0, 0)" stroke="rgb(204, 204, 204)" stroke-width="1px"></line></g></g><g transform="translate(51, 0)" clip-path="url(#clip_0)"><clipPath id="clip_0"><rect width="278" height="176"></rect></clipPath><g><g><g><line x1="0" y1="0" x2="0" y2="176.921875" fill="rgb(0, 0, 0)" stroke="rgb(66, 66, 66)" stroke-width="1px" opacity="0.25"></line><line x1="23.203125" y1="0" x2="23.203125" y2="176.921875" fill="rgb(0, 0, 0)" stroke="rgb(66, 66, 66)" stroke-width="1px" opacity="0.25"></line><line x1="46.40625" y1="0" x2="46.40625" y2="176.921875" fill="rgb(0, 0, 0)" stroke="rgb(66, 66, 66)" stroke-width="1px" opacity="0.25"></line><line x1="69.609375" y1="0" x2="69.609375" y2="176.921875" fill="rgb(0, 0, 0)" stroke="rgb(66, 66, 66)" stroke-width="1px" opacity="0.25"></line><line x1="92.8125" y1="0" x2="92.8125" y2="176.921875" fill="rgb(0, 0, 0)" stroke="rgb(66, 66, 66)" stroke-width="1px" opacity="0.25"></line><line x1="116.015625" y1="0" x2="116.015625" y2="176.921875" fill="rgb(0, 0, 0)" stroke="rgb(66, 66, 66)" stroke-width="1px" opacity="0.25"></line><line x1="139.21875" y1="0" x2="139.21875" y2="176.921875" fill="rgb(0, 0, 0)" stroke="rgb(66, 66, 66)" stroke-width="1px" opacity="0.25"></line><line x1="162.421875" y1="0" x2="162.421875" y2="176.921875" fill="rgb(0, 0, 0)" stroke="rgb(66, 66, 66)" stroke-width="1px" opacity="0.25"></line><line x1="185.625" y1="0" x2="185.625" y2="176.921875" fill="rgb(0, 0, 0)" stroke="rgb(66, 66, 66)" stroke-width="1px" opacity="0.25"></line><line x1="208.828125" y1="0" x2="208.828125" y2="176.921875" fill="rgb(0, 0, 0)" stroke="rgb(66, 66, 66)" stroke-width="1px" opacity="0.25"></line><line x1="232.03125" y1="0" x2="232.03125" y2="176.921875" fill="rgb(0, 0, 0)" stroke="rgb(66, 66, 66)" stroke-width="1px" opacity="0.25"></line><line x1="255.234375" y1="0" x2="255.234375" y2="176.921875" fill="rgb(0, 0, 0)" stroke="rgb(66, 66, 66)" stroke-width="1px" opacity="0.25"></line><line x1="278.4375" y1="0" x2="278.4375" y2="176.921875" fill="rgb(0, 0, 0)" stroke="rgb(66, 66, 66)" stroke-width="1px" opacity="0.25"></line></g><g><line x1="0" y1="176.921875" x2="278.4375" y2="176.921875" fill="rgb(0, 0, 0)" stroke="rgb(66, 66, 66)" stroke-width="1px" opacity="0.25"></line><line x1="0" y1="157.26388888888889" x2="278.4375" y2="157.26388888888889" fill="rgb(0, 0, 0)" stroke="rgb(66, 66, 66)" stroke-width="1px" opacity="0.25"></line><line x1="0" y1="137.60590277777777" x2="278.4375" y2="137.60590277777777" fill="rgb(0, 0, 0)" stroke="rgb(66, 66, 66)" stroke-width="1px" opacity="0.25"></line><line x1="0" y1="117.94791666666669" x2="278.4375" y2="117.94791666666669" fill="rgb(0, 0, 0)" stroke="rgb(66, 66, 66)" stroke-width="1px" opacity="0.25"></line><line x1="0" y1="98.28993055555556" x2="278.4375" y2="98.28993055555556" fill="rgb(0, 0, 0)" stroke="rgb(66, 66, 66)" stroke-width="1px" opacity="0.25"></line><line x1="0" y1="78.63194444444444" x2="278.4375" y2="78.63194444444444" fill="rgb(0, 0, 0)" stroke="rgb(66, 66, 66)" stroke-width="1px" opacity="0.25"></line><line x1="0" y1="58.97395833333334" x2="278.4375" y2="58.97395833333334" fill="rgb(0, 0, 0)" stroke="rgb(66, 66, 66)" stroke-width="1px" opacity="0.25"></line><line x1="0" y1="39.31597222222222" x2="278.4375" y2="39.31597222222222" fill="rgb(0, 0, 0)" stroke="rgb(66, 66, 66)" stroke-width="1px" opacity="0.25"></line><line x1="0" y1="19.65798611111112" x2="278.4375" y2="19.65798611111112" fill="rgb(0, 0, 0)" stroke="rgb(66, 66, 66)" stroke-width="1px" opacity="0.25"></line><line x1="0" y1="0" x2="278.4375" y2="0" fill="rgb(0, 0, 0)" stroke="rgb(66, 66, 66)" stroke-width="1px" opacity="0.25"></line></g></g></g><g><g><line x1="0" y1="3951.255208333333" x2="278.4375" y2="3951.255208333333" fill="rgb(0, 0, 0)" stroke="rgb(153, 153, 153)" stroke-width="1.5px"></line></g></g><g><g><line x1="23.203125" y1="0" x2="23.203125" y2="176.921875" fill="rgb(0, 0, 0)" stroke="rgb(153, 153, 153)" stroke-width="1.5px"></line></g></g><g><g><g><g><g><path stroke="rgb(0, 119, 187)" stroke-width="2px" d="M30.1640625,191.66536458333331L32.484375,151.36643306414285L34.8046875,126.9250316619873L37.125,106.02192378044128L39.4453125,89.77144991026985L41.765625,81.77729421191745L44.0859375,66.44408904181587L46.40625,57.204811573028564L48.7265625,54.19054304228889L51.04687499999999,43.96830627653334L53.36718750000001,39.44705345895555L55.6875,34.72902880774604L58.0078125,31.583978997336494L60.328125,31.05965405040316L62.6484375,29.618060403399987L64.96875,23.917076455222237L67.2890625,21.95145781834921L69.609375,21.03418911827935L71.92968750000001,20.37878293461271L74.25,19.854457987679375L76.5703125,19.723376750946045L78.890625,19.723376750946045L81.2109375,19.65798611111112L83.53125,19.65798611111112L85.8515625,19.65798611111112L88.171875,19.65798611111112L90.4921875,19.65798611111112L92.8125,19.65798611111112L95.1328125,19.65798611111112L97.453125,19.65798611111112L99.7734375,19.65798611111112L102.09374999999999,19.65798611111112L104.4140625,19.65798611111112L106.73437500000001,19.65798611111112L109.0546875,19.65798611111112L111.375,19.65798611111112L113.6953125,19.65798611111112L116.015625,19.65798611111112L118.3359375,19.65798611111112L120.65625,19.65798611111112L122.9765625,19.65798611111112L125.296875,19.65798611111112L127.6171875,19.65798611111112L129.9375,19.65798611111112L132.2578125,19.65798611111112L134.578125,19.65798611111112L136.8984375,19.65798611111112L139.21875,19.65798611111112L141.5390625,19.65798611111112L143.85937500000003,19.65798611111112L146.1796875,19.65798611111112L148.5,19.65798611111112L150.8203125,19.65798611111112L153.140625,19.65798611111112L155.4609375,19.65798611111112L157.78125,19.65798611111112L160.1015625,19.65798611111112L162.421875,19.65798611111112L164.7421875,19.65798611111112L167.0625,19.65798611111112L169.38281249999997,19.65798611111112L171.703125,19.65798611111112L174.0234375,19.65798611111112L176.34375,19.65798611111112L178.66406250000003,19.65798611111112L180.984375,19.65798611111112L183.3046875,19.65798611111112L185.625,19.65798611111112L187.9453125,19.65798611111112L190.265625,19.65798611111112L192.5859375,19.65798611111112L194.90625,19.65798611111112L197.2265625,19.65798611111112L199.546875,19.65798611111112L201.8671875,19.65798611111112L204.18749999999997,19.65798611111112L206.5078125,19.65798611111112L208.828125,19.65798611111112L211.1484375,19.65798611111112L213.46875000000003,19.65798611111112L215.7890625,19.65798611111112L218.109375,19.65798611111112L220.4296875,19.65798611111112L222.75,19.65798611111112L225.0703125,19.65798611111112L227.390625,19.65798611111112L229.7109375,19.65798611111112L232.03125,19.65798611111112L234.3515625,19.65798611111112L236.671875,19.65798611111112L238.99218749999997,19.65798611111112L241.3125,19.65798611111112L243.6328125,19.65798611111112L245.953125,19.65798611111112L248.27343750000003,19.65798611111112L250.59375,19.65798611111112L252.9140625,19.65798611111112L255.234375,19.65798611111112" style="fill: none;" fill="none"></path></g><g><path stroke="rgb(255, 112, 67)" stroke-width="2px" d="M30.1640625,193.82775505383808L32.484375,151.75967677434286L34.8046875,126.20423483848572L37.125,104.97357384363812L39.4453125,89.18173432350159L41.765625,80.92541615168253L44.0859375,66.37839844491747L46.40625,58.77748645676507L48.7265625,53.535136858622224L51.04687499999999,44.426940626568275L53.36718750000001,39.578134695688874L55.6875,35.25335375467935L58.0078125,31.64936963717142L60.328125,30.797491576936505L62.6484375,30.14238535033332L64.96875,24.310320165422223L67.2890625,21.95145781834921L69.609375,21.23066099484762L71.92968750000001,20.509864171346035L74.25,19.854457987679375L76.5703125,19.789067347844448L78.890625,19.723376750946045L81.2109375,19.723376750946045L83.53125,19.65798611111112L85.8515625,19.65798611111112L88.171875,19.65798611111112L90.4921875,19.65798611111112L92.8125,19.65798611111112L95.1328125,19.65798611111112L97.453125,19.65798611111112L99.7734375,19.65798611111112L102.09374999999999,19.65798611111112L104.4140625,19.65798611111112L106.73437500000001,19.65798611111112L109.0546875,19.65798611111112L111.375,19.65798611111112L113.6953125,19.65798611111112L116.015625,19.65798611111112L118.3359375,19.65798611111112L120.65625,19.65798611111112L122.9765625,19.65798611111112L125.296875,19.65798611111112L127.6171875,19.65798611111112L129.9375,19.65798611111112L132.2578125,19.65798611111112L134.578125,19.65798611111112L136.8984375,19.65798611111112L139.21875,19.65798611111112L141.5390625,19.65798611111112L143.85937500000003,19.65798611111112L146.1796875,19.65798611111112L148.5,19.65798611111112L150.8203125,19.65798611111112L153.140625,19.65798611111112L155.4609375,19.65798611111112L157.78125,19.65798611111112L160.1015625,19.65798611111112L162.421875,19.65798611111112L164.7421875,19.65798611111112L167.0625,19.65798611111112L169.38281249999997,19.65798611111112L171.703125,19.65798611111112L174.0234375,19.65798611111112L176.34375,19.65798611111112L178.66406250000003,19.65798611111112L180.984375,19.65798611111112L183.3046875,19.65798611111112L185.625,19.65798611111112L187.9453125,19.65798611111112L190.265625,19.65798611111112L192.5859375,19.65798611111112L194.90625,19.65798611111112L197.2265625,19.65798611111112L199.546875,19.65798611111112L201.8671875,19.65798611111112L204.18749999999997,19.65798611111112L206.5078125,19.65798611111112L208.828125,19.65798611111112L211.1484375,19.65798611111112L213.46875000000003,19.65798611111112L215.7890625,19.65798611111112L218.109375,19.65798611111112L220.4296875,19.65798611111112L222.75,19.65798611111112L225.0703125,19.65798611111112L227.390625,19.65798611111112L229.7109375,19.65798611111112L232.03125,19.65798611111112L234.3515625,19.65798611111112L236.671875,19.65798611111112L238.99218749999997,19.65798611111112L241.3125,19.65798611111112L243.6328125,19.65798611111112L245.953125,19.65798611111112L248.27343750000003,19.65798611111112L250.59375,19.65798611111112L252.9140625,19.65798611111112L255.234375,19.65798611111112" style="fill: none;" fill="none"></path></g></g></g></g></g></g><g transform="translate(51, 176)" clip-path="url(#clip_1)"><clipPath id="clip_1"><rect width="278" height="23"></rect></clipPath><g><g><line x1="0" y1="0" x2="0" y2="5" style="visibility: inherit;" fill="rgb(0, 0, 0)" stroke="rgb(204, 204, 204)" stroke-width="1px"></line><line x1="23.203125" y1="0" x2="23.203125" y2="5" style="visibility: inherit;" fill="rgb(0, 0, 0)" stroke="rgb(204, 204, 204)" stroke-width="1px"></line><line x1="46.40625" y1="0" x2="46.40625" y2="5" style="visibility: inherit;" fill="rgb(0, 0, 0)" stroke="rgb(204, 204, 204)" stroke-width="1px"></line><line x1="69.609375" y1="0" x2="69.609375" y2="5" style="visibility: inherit;" fill="rgb(0, 0, 0)" stroke="rgb(204, 204, 204)" stroke-width="1px"></line><line x1="92.8125" y1="0" x2="92.8125" y2="5" style="visibility: inherit;" fill="rgb(0, 0, 0)" stroke="rgb(204, 204, 204)" stroke-width="1px"></line><line x1="116.015625" y1="0" x2="116.015625" y2="5" style="visibility: inherit;" fill="rgb(0, 0, 0)" stroke="rgb(204, 204, 204)" stroke-width="1px"></line><line x1="139.21875" y1="0" x2="139.21875" y2="5" style="visibility: inherit;" fill="rgb(0, 0, 0)" stroke="rgb(204, 204, 204)" stroke-width="1px"></line><line x1="162.421875" y1="0" x2="162.421875" y2="5" style="visibility: inherit;" fill="rgb(0, 0, 0)" stroke="rgb(204, 204, 204)" stroke-width="1px"></line><line x1="185.625" y1="0" x2="185.625" y2="5" style="visibility: inherit;" fill="rgb(0, 0, 0)" stroke="rgb(204, 204, 204)" stroke-width="1px"></line><line x1="208.828125" y1="0" x2="208.828125" y2="5" style="visibility: inherit;" fill="rgb(0, 0, 0)" stroke="rgb(204, 204, 204)" stroke-width="1px"></line><line x1="232.03125" y1="0" x2="232.03125" y2="5" style="visibility: inherit;" fill="rgb(0, 0, 0)" stroke="rgb(204, 204, 204)" stroke-width="1px"></line><line x1="255.234375" y1="0" x2="255.234375" y2="5" style="visibility: inherit;" fill="rgb(0, 0, 0)" stroke="rgb(204, 204, 204)" stroke-width="1px"></line><line x1="278.4375" y1="0" x2="278.4375" y2="5" style="visibility: inherit;" fill="rgb(0, 0, 0)" stroke="rgb(204, 204, 204)" stroke-width="1px"></line></g><g transform="translate(0, 8)"><text x="0" y="0" dx="0em" dy="0.95em" style="text-anchor: middle; visibility: hidden; font-family: Roboto, sans-serif; font-size: 12px; font-weight: 200;" fill="rgb(33, 33, 33)" stroke="none" stroke-width="1px">-10</text><text x="23.203125" y="0" dx="0em" dy="0.95em" style="text-anchor: middle; visibility: inherit; font-family: Roboto, sans-serif; font-size: 12px; font-weight: 200;" fill="rgb(33, 33, 33)" stroke="none" stroke-width="1px">0</text><text x="46.40625" y="0" dx="0em" dy="0.95em" style="text-anchor: middle; visibility: inherit; font-family: Roboto, sans-serif; font-size: 12px; font-weight: 200;" fill="rgb(33, 33, 33)" stroke="none" stroke-width="1px">10</text><text x="69.609375" y="0" dx="0em" dy="0.95em" style="text-anchor: middle; visibility: inherit; font-family: Roboto, sans-serif; font-size: 12px; font-weight: 200;" fill="rgb(33, 33, 33)" stroke="none" stroke-width="1px">20</text><text x="92.8125" y="0" dx="0em" dy="0.95em" style="text-anchor: middle; visibility: inherit; font-family: Roboto, sans-serif; font-size: 12px; font-weight: 200;" fill="rgb(33, 33, 33)" stroke="none" stroke-width="1px">30</text><text x="116.015625" y="0" dx="0em" dy="0.95em" style="text-anchor: middle; visibility: inherit; font-family: Roboto, sans-serif; font-size: 12px; font-weight: 200;" fill="rgb(33, 33, 33)" stroke="none" stroke-width="1px">40</text><text x="139.21875" y="0" dx="0em" dy="0.95em" style="text-anchor: middle; visibility: inherit; font-family: Roboto, sans-serif; font-size: 12px; font-weight: 200;" fill="rgb(33, 33, 33)" stroke="none" stroke-width="1px">50</text><text x="162.421875" y="0" dx="0em" dy="0.95em" style="text-anchor: middle; visibility: inherit; font-family: Roboto, sans-serif; font-size: 12px; font-weight: 200;" fill="rgb(33, 33, 33)" stroke="none" stroke-width="1px">60</text><text x="185.625" y="0" dx="0em" dy="0.95em" style="text-anchor: middle; visibility: inherit; font-family: Roboto, sans-serif; font-size: 12px; font-weight: 200;" fill="rgb(33, 33, 33)" stroke="none" stroke-width="1px">70</text><text x="208.828125" y="0" dx="0em" dy="0.95em" style="text-anchor: middle; visibility: inherit; font-family: Roboto, sans-serif; font-size: 12px; font-weight: 200;" fill="rgb(33, 33, 33)" stroke="none" stroke-width="1px">80</text><text x="232.03125" y="0" dx="0em" dy="0.95em" style="text-anchor: middle; visibility: inherit; font-family: Roboto, sans-serif; font-size: 12px; font-weight: 200;" fill="rgb(33, 33, 33)" stroke="none" stroke-width="1px">90</text><text x="255.234375" y="0" dx="0em" dy="0.95em" style="text-anchor: middle; visibility: inherit; font-family: Roboto, sans-serif; font-size: 12px; font-weight: 200;" fill="rgb(33, 33, 33)" stroke="none" stroke-width="1px">100</text><text x="278.4375" y="0" dx="0em" dy="0.95em" style="text-anchor: middle; visibility: hidden; font-family: Roboto, sans-serif; font-size: 12px; font-weight: 200;" fill="rgb(33, 33, 33)" stroke="none" stroke-width="1px">110</text></g><line x1="0" y1="0" x2="278.4375" y2="0" fill="rgb(0, 0, 0)" stroke="rgb(204, 204, 204)" stroke-width="1px"></line></g></g></g></g></svg>